<svg width="400" height="400" viewBox="0 0 400 400" fill="none" xmlns="http://www.w3.org/2000/svg">
<rect width="400" height="400" rx="80" fill="#00BF64"/>
<path d="M136.828 109.016L54.9458 295H74.2821L143.888 136.424C145.071 133.73 148.898 133.746 150.058 136.45L218.043 295H255.034C267.225 295 342.048 289.128 344.99 199.371C347.344 127.565 284.319 106.538 252.512 105H179.371L187.357 124.294H252.512C276.472 123.315 324.393 137.38 324.393 201.468C324.393 237.539 297.899 265.11 269.747 272.77C255.875 276.545 240.325 276.982 232.335 276.545L158.441 109.011C157.365 106.573 154.952 105 152.287 105H142.984C140.317 105 137.903 106.575 136.828 109.016Z" fill="white"/>
<path d="M110.012 295H89.4148L120.101 226.062L131.03 249.181L110.012 295Z" fill="#BEFFE0"/>
<path d="M201.229 155.485L192.402 136.569C202.35 137.129 228.717 135.29 254.614 136.569C288.663 138.25 300.853 165.573 300.853 165.573C300.853 165.573 286.561 155.485 261.34 155.485H201.229Z" fill="#BEFFE0"/>
</svg>
